Coordinates
version=1
nRows=26
nColumns=22
inDegrees=yes

Units are S.I. units (second, meters, Newtons, ...)
If the header above contains a line with 'inDegrees', this indicates whether rotational values are in degrees (yes) or radians (no).

endheader
time	pelvis_tilt	pelvis_list	pelvis_rotation	pelvis_tx	pelvis_ty	pelvis_tz	hip_flexion_r	hip_adduction_r	hip_rotation_r	knee_angle_r	ankle_angle_r	subtalar_angle_r	hip_flexion_l	hip_adduction_l	hip_rotation_l	knee_angle_l	ankle_angle_l	subtalar_angle_l	lumbar_extension	lumbar_bending	lumbar_rotation
      0.01000000	     -8.39225996	     -0.10286494	    -15.62553513	     -1.10542067	      0.88272850	     -0.46807747	      7.04622925	     -3.10307372	      5.49867175	     -7.78828223	     12.70340368	     -1.34329277	      4.07681623	     -6.75313979	    -13.65266717	     -7.99162326	     14.18236464	      8.29174347	      4.63201456	      0.12552664	     11.58408511
      0.02000000	     -8.38732173	     -0.09974870	    -15.61703334	     -1.10545984	      0.88274322	     -0.46807982	      7.04640073	     -3.10719371	      5.49854646	     -7.79392974	     12.70239748	     -1.34453467	      4.07665576	     -6.74841989	    -13.65439014	     -7.98994975	     14.18094042	      8.29310090	      4.63203515	      0.12606905	     11.58078021
      0.03000000	     -8.37212808	     -0.08819400	    -15.60295735	     -1.10552760	      0.88277279	     -0.46808440	      7.05055813	     -3.12192306	      5.48700828	     -7.81904130	     12.70165489	     -1.35098871	      4.07270052	     -6.73275199	    -13.64849290	     -7.99096998	     14.16625449	      8.30042909	      4.61871268	      0.11322284	     11.53963365
      0.04000000	     -8.36740764	     -0.08695548	    -15.59257631	     -1.10557471	      0.88278855	     -0.46808759	      7.04929750	     -3.12405543	      5.48639633	     -7.82206861	     12.70273222	     -1.35165759	      4.07378268	     -6.73036983	    -13.64755811	     -7.99015285	     14.16456779	      8.30113043	      4.62000010	      0.11745475	     11.53957508
      0.05000000	     -8.34890831	     -0.08403353	    -15.56140492	     -1.10565636	      0.88282379	     -0.46811366	      7.04570751	     -3.13242036	      5.45803368	     -7.84784087	     12.71278788	     -1.35917677	      4.07396908	     -6.72323131	    -13.61403557	     -8.00048256	     14.14189523	      8.30851119	      4.59832896	      0.11045742	     11.49002507
      0.06000000	     -8.34435496	     -0.08315077	    -15.55121963	     -1.10570013	      0.88283608	     -0.46811676	      7.04375681	     -3.13460765	      5.45628705	     -7.84990134	     12.71350904	     -1.35977825	      4.07431751	     -6.72147262	    -13.61293493	     -7.99935170	     14.14177234	      8.30890023	      4.60155580	      0.11568010	     11.49173912
      0.07000000	     -8.32420363	     -0.08426046	    -15.51184686	     -1.10576651	      0.88286971	     -0.46815506	      7.03155572	     -3.14094662	      5.39814036	     -7.86868746	     12.72576262	     -1.37074286	      4.07171250	     -6.71694872	    -13.55917003	     -8.00823437	     14.13002537	      8.31549372	      4.57955464	      0.10965375	     11.46495779
      0.08000000	     -8.31924658	     -0.08380644	    -15.50337158	     -1.10580747	      0.88287980	     -0.46815521	      7.02933403	     -3.14274855	      5.39858090	     -7.87104706	     12.72595069	     -1.37124739	      4.07075159	     -6.71583489	    -13.55934599	     -8.00728807	     14.13002158	      8.31558602	      4.58482426	      0.11401281	     11.46561026
      0.09000000	     -8.31353002	     -0.08373695	    -15.49198311	     -1.10585529	      0.88288989	     -0.46815710	      7.02629082	     -3.14354585	      5.39775423	     -7.87456869	     12.72630503	     -1.37207177	      4.07054925	     -6.71519789	    -13.55777342	     -8.00633380	     14.12948510	      8.31578280	      4.58842777	      0.11593462	     11.46890259
      0.10000000	     -8.29633844	     -0.08413579	    -15.47465988	     -1.10590037	      0.88291445	     -0.46817511	      7.01490447	     -3.14840421	      5.36521566	     -7.88516243	     12.73425516	     -1.38160438	      4.05971252	     -6.71044206	    -13.52303411	     -8.00744370	     14.12227186	      8.31845691	      4.57930240	      0.11253285	     11.48665101
      0.11000000	     -8.29033532	     -0.08461906	    -15.46222920	     -1.10594426	      0.88292159	     -0.46818755	      7.01174204	     -3.14926021	      5.36611559	     -7.88885791	     12.73447260	     -1.38236116	      4.05859569	     -6.70952654	    -13.52318186	     -8.00546418	     14.12189729	      8.31853743	      4.58464768	      0.11448472	     11.49073419
      0.12000000	     -8.28349869	     -0.08497886	    -15.45076683	     -1.10597906	      0.88293008	     -0.46820113	      7.00694450	     -3.15071103	      5.36516661	     -7.89325661	     12.73507034	     -1.38344710	      4.05648122	     -6.70831147	    -13.52047214	     -8.00453292	     14.12100909	      8.31880302	      4.59107643	      0.11706014	     11.49959108
      0.13000000	     -8.26621964	     -0.08514767	    -15.44316220	     -1.10600866	      0.88295208	     -0.46821566	      6.99430578	     -3.15511875	      5.34103322	     -7.89984370	     12.74387702	     -1.39276440	      4.03696167	     -6.70222981	    -13.48838524	     -7.99537740	     14.11352537	      8.32133105	      4.58611559	      0.11444416	     11.54330490
      0.14000000	     -8.25943506	     -0.08553811	    -15.43057649	     -1.10604105	      0.88296015	     -0.46824044	      6.98982087	     -3.15680913	      5.34299886	     -7.90453186	     12.74405441	     -1.39363243	      4.03506552	     -6.70017925	    -13.48839995	     -7.99336713	     14.11265802	      8.32141938	      4.59200864	      0.11810157	     11.54866250
      0.15000000	     -8.25196882	     -0.08593691	    -15.41999200	     -1.10606546	      0.88297176	     -0.46826603	      6.98469848	     -3.15898287	      5.34350827	     -7.90935043	     12.74457755	     -1.39473789	      4.03168964	     -6.69745959	    -13.48571640	     -7.99326794	     14.11125370	      8.32161217	      4.59822837	      0.12249940	     11.55729585
      0.16000000	     -8.20649691	     -0.08391883	    -15.41181193	     -1.10607047	      0.88303586	     -0.46829246	      6.94791295	     -3.17423045	      5.31616412	     -7.92791776	     12.76549774	     -1.42024795	      3.96767975	     -6.67550815	    -13.44528276	     -7.95444848	     14.08927393	      8.32199680	      4.56104996	      0.11214309	     11.58622160
      0.17000000	     -8.20026395	     -0.08408154	    -15.40154545	     -1.10609266	      0.88304616	     -0.46832050	      6.94354345	     -3.17652942	      5.31826216	     -7.93091123	     12.76510954	     -1.42072436	      3.96681892	     -6.67302061	    -13.44571613	     -7.95632623	     14.08822578	      8.32178028	      4.56777995	      0.11811919	     11.59101293
      0.18000000	     -8.19368469	     -0.08414420	    -15.39243366	     -1.10611147	      0.88305945	     -0.46834995	      6.93926952	     -3.17948304	      5.31909641	     -7.93464779	     12.76484308	     -1.42137359	      3.96541337	     -6.67017293	    -13.44441332	     -7.95945943	     14.08701186	      8.32157278	      4.57364361	      0.12509275	     11.59654562
      0.19000000	     -8.17785427	     -0.08596771	    -15.37764474	     -1.10614841	      0.88308738	     -0.46838984	      6.92853750	     -3.18360232	      5.30490914	     -7.94428531	     12.76674853	     -1.42652403	      3.96218092	     -6.66774630	    -13.42542264	     -7.97332732	     14.08114945	      8.31974194	      4.56273335	      0.12930020	     11.61511112
      0.20000000	     -8.17130312	     -0.08559754	    -15.37029297	     -1.10615101	      0.88310164	     -0.46842000	      6.92436608	     -3.18759937	      5.30490482	     -7.94963158	     12.76666781	     -1.42736115	      3.95876665	     -6.66408293	    -13.42432240	     -7.97589133	     14.08072764	      8.31943905	      4.57027715	      0.13867018	     11.61561631
      0.21000000	     -8.16440107	     -0.08526111	    -15.36014179	     -1.10615705	      0.88311826	     -0.46845798	      6.92013002	     -3.19234021	      5.30386321	     -7.95610889	     12.76676021	     -1.42845008	      3.95663961	     -6.65990860	    -13.42205202	     -7.97843375	     14.08006743	      8.31908768	      4.57491466	      0.14945783	     11.61676169
      0.22000000	     -8.12587406	     -0.09452455	    -15.30792357	     -1.10615202	      0.88317724	     -0.46856579	      6.88635952	     -3.20117342	      5.21117968	     -7.98626207	     12.79202419	     -1.45416899	      3.93059719	     -6.65229070	    -13.35325269	     -7.98425561	     14.07782628	      8.30642881	      4.53571626	      0.15842063	     11.56496586
      0.23000000	     -8.11979185	     -0.09346827	    -15.29687612	     -1.10615231	      0.88319077	     -0.46860148	      6.88196482	     -3.20639464	      5.21337624	     -7.99091829	     12.79120776	     -1.45482168	      3.92914480	     -6.64795109	    -13.35177745	     -7.98684756	     14.07681104	      8.30608034	      4.54245712	      0.17019876	     11.56799433
      0.24000000	     -8.09148147	     -0.09650563	    -15.24475363	     -1.10614673	      0.88323757	     -0.46871331	      6.84651000	     -3.22009924	      5.15267269	     -7.99399522	     12.79579921	     -1.47535516	      3.91695867	     -6.63649940	    -13.28152082	     -7.99448568	     14.06839523	      8.29031859	      4.51880433	      0.17737916	     11.52526815
      0.25000000	     -8.08513860	     -0.09481523	    -15.23233675	     -1.10614597	      0.88325104	     -0.46875673	      6.84175170	     -3.22592695	      5.15456853	     -7.99876595	     12.79528754	     -1.47593861	      3.91585235	     -6.63052226	    -13.27993222	     -7.99730992	     14.06742745	      8.28991713	      4.52569753	      0.19168866	     11.52966686
      0.26000000	     -8.05918489	     -0.09062284	    -15.18219216	     -1.10614739	      0.88329006	     -0.46887587	      6.80980653	     -3.24727637	      5.09668409	     -7.99694441	     12.80169165	     -1.48944390	      3.90950055	     -6.61195276	    -13.20874957	     -8.00874585	     14.06039317	      8.27446685	      4.50642279	      0.19496275	     11.49893305
